<?xml version="1.0" encoding="utf-8"?>
<!-- Generator: Adobe Illustrator 24.0.1, SVG Export Plug-In . SVG Version: 6.00 Build 0)  -->
<svg version="1.1" id="Layer_1" xmlns="http://www.w3.org/2000/svg" xmlns:xlink="http://www.w3.org/1999/xlink" x="0px" y="0px"
	 viewBox="0 0 500 500" style="enable-background:new 0 0 500 500;" xml:space="preserve">
<style type="text/css">
	.st0{fill:#FFFFFF;}
	.st1{fill:url(#SVGID_1_);}
	.st2{fill:url(#SVGID_2_);}
</style>
<path class="st0" d="M432,261.3L262.21,431.09c-6.68,6.68-17.5,6.68-24.18,0L68.24,261.3c-6.68-6.68-6.68-17.5,0-24.18L238.03,67.33
	c6.68-6.68,17.5-6.68,24.18,0L432,237.12C438.68,243.8,438.68,254.63,432,261.3z"/>
<g>
	<radialGradient id="SVGID_1_" cx="256.0868" cy="243.6367" r="101.4394" gradientUnits="userSpaceOnUse">
		<stop  offset="0" style="stop-color:#FCC786"/>
		<stop  offset="1" style="stop-color:#EA8604"/>
	</radialGradient>
	<path class="st1" d="M211.68,286.84c9.1-50.36,55.82-43.69,89.8-61.28c0,0-2.75,25.86-31.46,37.21
		c7.72,13.36,15.6,33.5,45.61,34.13c30.01,0.63,31.46-33.34,29.78-47.2c-4.16-34.35-38.77-70.6-38.77-70.6
		c-31.87-34.48-35.65-31.17-35.65-31.17c4.63,9.89-7.61,49.79-7.61,49.79c-12.51-43.99-42.09-65.96-42.09-65.96
		c0,70.79-54.98,81.63-54.98,147.16c0,30.82,12.44,59.28,40.89,73.09c32.51,15.78,64.19-24.8,39.79-51.46
		C239.55,292.4,227.78,286.84,211.68,286.84z"/>
</g>
<radialGradient id="SVGID_2_" cx="245.4182" cy="273.4159" r="4.1766" gradientUnits="userSpaceOnUse">
	<stop  offset="0" style="stop-color:#FCC786"/>
	<stop  offset="1" style="stop-color:#EA8604"/>
</radialGradient>
<path class="st2" d="M249.59,273.42c0,2.31-1.87,4.18-4.18,4.18c-2.31,0-4.18-1.87-4.18-4.18c0-2.31,1.87-4.18,4.18-4.18
	C247.72,269.24,249.59,271.11,249.59,273.42z"/>
</svg>
